<svg width="32" height="32" viewBox="0 0 32 32" fill="none" xmlns="http://www.w3.org/2000/svg">
<path d="M0 6.82667C0 3.0564 3.0564 0 6.82667 0H25.1733C28.9436 0 32 3.0564 32 6.82667V25.1733C32 28.9436 28.9436 32 25.1733 32H6.82667C3.0564 32 0 28.9436 0 25.1733V6.82667Z" fill="#F26549"/>
<path d="M26.88 7.18013C26.88 6.41989 25.9608 6.03916 25.4233 6.57673L17.8531 14.1469C17.213 14.787 16.8533 15.6552 16.8533 16.5605V25.1733C16.8533 26.1159 17.6174 26.88 18.56 26.88H25.1733C26.1159 26.88 26.88 26.1159 26.88 25.1733V7.18013Z" fill="url(#paint0_linear_2046_982)"/>
<path d="M5.12 7.18013C5.12 6.41989 6.03916 6.03916 6.57673 6.57673L14.1469 14.1469C14.787 14.787 15.1467 15.6552 15.1467 16.5605V25.1733C15.1467 26.1159 14.3826 26.88 13.44 26.88H6.82667C5.8841 26.88 5.12 26.1159 5.12 25.1733V7.18013Z" fill="url(#paint1_linear_2046_982)"/>
<defs>
<linearGradient id="paint0_linear_2046_982" x1="16" y1="0" x2="16" y2="32" gradientUnits="userSpaceOnUse">
<stop offset="0.25" stop-color="white" stop-opacity="0.75"/>
<stop offset="1" stop-color="white" stop-opacity="0.65"/>
</linearGradient>
<linearGradient id="paint1_linear_2046_982" x1="16" y1="0" x2="16" y2="32" gradientUnits="userSpaceOnUse">
<stop offset="0.25" stop-color="white" stop-opacity="0.75"/>
<stop offset="1" stop-color="white" stop-opacity="0.65"/>
</linearGradient>
</defs>
</svg>
